<svg xmlns="http://www.w3.org/2000/svg" version="1.1" xmlns:xlink="http://www.w3.org/1999/xlink" xmlns:svgjs="http://svgjs.dev/svgjs" width="1440" height="560" preserveAspectRatio="none" viewBox="0 0 1440 560"><g mask="url(&quot;#SvgjsMask1000&quot;)" fill="none"><rect width="1440" height="560" x="0" y="0" fill="#0e2a47"></rect><path d="M-92.72 360.89L-92.72 360.89" stroke="#132e65" stroke-width="1.5"></path><path d="M-92.72 360.89L42.43 349.27" stroke="#132e65" stroke-width="1.5"></path><path d="M-92.72 360.89L-111.32 520.41" stroke="#132e65" stroke-width="1.5"></path><path d="M-111.32 520.41L-111.32 520.41" stroke="#132e65" stroke-width="1.5"></path><path d="M-111.32 520.41L-72.44 689.08" stroke="#132e65" stroke-width="1.5"></path><path d="M-111.32 520.41L102.35 547.85" stroke="#132e65" stroke-width="1.5"></path><path d="M-72.44 689.08L-72.44 689.08" stroke="#132e65" stroke-width="1.5"></path><path d="M-72.44 689.08L98.23 638.82" stroke="#132e65" stroke-width="1.5"></path><path d="M-72.44 689.08L102.35 547.85" stroke="#132e65" stroke-width="1.5"></path><path d="M-72.44 689.08L196.37 700.4" stroke="#132e65" stroke-width="1.5"></path><path d="M-72.44 689.08L-92.72 360.89" stroke="#132e65" stroke-width="1.5"></path><path d="M-72.44 689.08L42.43 349.27" stroke="#132e65" stroke-width="1.5"></path><path d="M42.43 349.27L42.43 349.27" stroke="#132e65" stroke-width="1.5"></path><path d="M42.43 349.27L102.35 547.85" stroke="#132e65" stroke-width="1.5"></path><path d="M42.43 349.27L-111.32 520.41" stroke="#132e65" stroke-width="1.5"></path><path d="M42.43 349.27L234.48 500.19" stroke="#132e65" stroke-width="1.5"></path><path d="M102.35 547.85L102.35 547.85" stroke="#132e65" stroke-width="1.5"></path><path d="M102.35 547.85L98.23 638.82" stroke="#132e65" stroke-width="1.5"></path><path d="M102.35 547.85L234.48 500.19" stroke="#132e65" stroke-width="1.5"></path><path d="M102.35 547.85L196.37 700.4" stroke="#132e65" stroke-width="1.5"></path><path d="M98.23 638.82L98.23 638.82" stroke="#132e65" stroke-width="1.5"></path><path d="M98.23 638.82L196.37 700.4" stroke="#132e65" stroke-width="1.5"></path><path d="M98.23 638.82L234.48 500.19" stroke="#132e65" stroke-width="1.5"></path><path d="M98.23 638.82L-111.32 520.41" stroke="#132e65" stroke-width="1.5"></path><path d="M234.48 500.19L234.48 500.19" stroke="#132e65" stroke-width="1.5"></path><path d="M234.48 500.19L392.86 559.53" stroke="#132e65" stroke-width="1.5"></path><path d="M234.48 500.19L410.99 399.97" stroke="#132e65" stroke-width="1.5"></path><path d="M234.48 500.19L196.37 700.4" stroke="#132e65" stroke-width="1.5"></path><path d="M196.37 700.4L196.37 700.4" stroke="#132e65" stroke-width="1.5"></path><path d="M196.37 700.4L376.29 656.03" stroke="#132e65" stroke-width="1.5"></path><path d="M410.99 399.97L410.99 399.97" stroke="#132e65" stroke-width="1.5"></path><path d="M410.99 399.97L503.73 375.97" stroke="#132e65" stroke-width="1.5"></path><path d="M410.99 399.97L517.14 502.02" stroke="#132e65" stroke-width="1.5"></path><path d="M410.99 399.97L392.86 559.53" stroke="#132e65" stroke-width="1.5"></path><path d="M392.86 559.53L392.86 559.53" stroke="#132e65" stroke-width="1.5"></path><path d="M392.86 559.53L376.29 656.03" stroke="#132e65" stroke-width="1.5"></path><path d="M392.86 559.53L517.14 502.02" stroke="#132e65" stroke-width="1.5"></path><path d="M376.29 656.03L376.29 656.03" stroke="#132e65" stroke-width="1.5"></path><path d="M376.29 656.03L513.79 708.08" stroke="#132e65" stroke-width="1.5"></path><path d="M376.29 656.03L517.14 502.02" stroke="#132e65" stroke-width="1.5"></path><path d="M376.29 656.03L234.48 500.19" stroke="#132e65" stroke-width="1.5"></path><path d="M376.29 656.03L410.99 399.97" stroke="#132e65" stroke-width="1.5"></path><path d="M503.73 375.97L503.73 375.97" stroke="#132e65" stroke-width="1.5"></path><path d="M503.73 375.97L517.14 502.02" stroke="#132e65" stroke-width="1.5"></path><path d="M503.73 375.97L392.86 559.53" stroke="#132e65" stroke-width="1.5"></path><path d="M503.73 375.97L697.9 499.56" stroke="#132e65" stroke-width="1.5"></path><path d="M517.14 502.02L517.14 502.02" stroke="#132e65" stroke-width="1.5"></path><path d="M517.14 502.02L697.9 499.56" stroke="#132e65" stroke-width="1.5"></path><path d="M513.79 708.08L513.79 708.08" stroke="#132e65" stroke-width="1.5"></path><path d="M513.79 708.08L660.9 688.05" stroke="#132e65" stroke-width="1.5"></path><path d="M513.79 708.08L392.86 559.53" stroke="#132e65" stroke-width="1.5"></path><path d="M513.79 708.08L517.14 502.02" stroke="#132e65" stroke-width="1.5"></path><path d="M513.79 708.08L697.9 499.56" stroke="#132e65" stroke-width="1.5"></path><path d="M513.79 708.08L807.06 705.08" stroke="#132e65" stroke-width="1.5"></path><path d="M707.49 223.48L707.49 223.48" stroke="#132e65" stroke-width="1.5"></path><path d="M707.49 223.48L836.93 240.4" stroke="#132e65" stroke-width="1.5"></path><path d="M707.49 223.48L846.85 386.19" stroke="#132e65" stroke-width="1.5"></path><path d="M707.49 223.48L503.73 375.97" stroke="#132e65" stroke-width="1.5"></path><path d="M707.49 223.48L697.9 499.56" stroke="#132e65" stroke-width="1.5"></path><path d="M707.49 223.48L839.45 490.69" stroke="#132e65" stroke-width="1.5"></path><path d="M707.49 223.48L1009.48 254.97" stroke="#132e65" stroke-width="1.5"></path><path d="M697.9 499.56L697.9 499.56" stroke="#132e65" stroke-width="1.5"></path><path d="M697.9 499.56L839.45 490.69" stroke="#132e65" stroke-width="1.5"></path><path d="M697.9 499.56L846.85 386.19" stroke="#132e65" stroke-width="1.5"></path><path d="M697.9 499.56L660.9 688.05" stroke="#132e65" stroke-width="1.5"></path><path d="M660.9 688.05L660.9 688.05" stroke="#132e65" stroke-width="1.5"></path><path d="M660.9 688.05L807.06 705.08" stroke="#132e65" stroke-width="1.5"></path><path d="M660.9 688.05L517.14 502.02" stroke="#132e65" stroke-width="1.5"></path><path d="M660.9 688.05L839.45 490.69" stroke="#132e65" stroke-width="1.5"></path><path d="M836.93 240.4L836.93 240.4" stroke="#132e65" stroke-width="1.5"></path><path d="M836.93 240.4L846.85 386.19" stroke="#132e65" stroke-width="1.5"></path><path d="M836.93 240.4L1009.48 254.97" stroke="#132e65" stroke-width="1.5"></path><path d="M836.93 240.4L978.22 394.38" stroke="#132e65" stroke-width="1.5"></path><path d="M846.85 386.19L846.85 386.19" stroke="#132e65" stroke-width="1.5"></path><path d="M846.85 386.19L839.45 490.69" stroke="#132e65" stroke-width="1.5"></path><path d="M846.85 386.19L978.22 394.38" stroke="#132e65" stroke-width="1.5"></path><path d="M846.85 386.19L987.96 506.71" stroke="#132e65" stroke-width="1.5"></path><path d="M839.45 490.69L839.45 490.69" stroke="#132e65" stroke-width="1.5"></path><path d="M807.06 705.08L807.06 705.08" stroke="#132e65" stroke-width="1.5"></path><path d="M807.06 705.08L1001.7 650.12" stroke="#132e65" stroke-width="1.5"></path><path d="M807.06 705.08L839.45 490.69" stroke="#132e65" stroke-width="1.5"></path><path d="M807.06 705.08L697.9 499.56" stroke="#132e65" stroke-width="1.5"></path><path d="M997.73 -88.98L997.73 -88.98" stroke="#132e65" stroke-width="1.5"></path><path d="M997.73 -88.98L1011.58 42.43" stroke="#132e65" stroke-width="1.5"></path><path d="M997.73 -88.98L1143.51 -70.64" stroke="#132e65" stroke-width="1.5"></path><path d="M1011.58 42.43L1011.58 42.43" stroke="#132e65" stroke-width="1.5"></path><path d="M1011.58 42.43L1117.74 45.51" stroke="#132e65" stroke-width="1.5"></path><path d="M1009.48 254.97L1009.48 254.97" stroke="#132e65" stroke-width="1.5"></path><path d="M1009.48 254.97L978.22 394.38" stroke="#132e65" stroke-width="1.5"></path><path d="M1009.48 254.97L1152.81 215.72" stroke="#132e65" stroke-width="1.5"></path><path d="M1009.48 254.97L1141.27 364.92" stroke="#132e65" stroke-width="1.5"></path><path d="M1009.48 254.97L846.85 386.19" stroke="#132e65" stroke-width="1.5"></path><path d="M1009.48 254.97L1011.58 42.43" stroke="#132e65" stroke-width="1.5"></path><path d="M978.22 394.38L978.22 394.38" stroke="#132e65" stroke-width="1.5"></path><path d="M978.22 394.38L987.96 506.71" stroke="#132e65" stroke-width="1.5"></path><path d="M978.22 394.38L1141.27 364.92" stroke="#132e65" stroke-width="1.5"></path><path d="M978.22 394.38L839.45 490.69" stroke="#132e65" stroke-width="1.5"></path><path d="M978.22 394.38L1102.62 548.56" stroke="#132e65" stroke-width="1.5"></path><path d="M987.96 506.71L987.96 506.71" stroke="#132e65" stroke-width="1.5"></path><path d="M987.96 506.71L1102.62 548.56" stroke="#132e65" stroke-width="1.5"></path><path d="M1001.7 650.12L1001.7 650.12" stroke="#132e65" stroke-width="1.5"></path><path d="M1001.7 650.12L1118.1 644.78" stroke="#132e65" stroke-width="1.5"></path><path d="M1001.7 650.12L1102.62 548.56" stroke="#132e65" stroke-width="1.5"></path><path d="M1001.7 650.12L987.96 506.71" stroke="#132e65" stroke-width="1.5"></path><path d="M1001.7 650.12L839.45 490.69" stroke="#132e65" stroke-width="1.5"></path><path d="M1001.7 650.12L978.22 394.38" stroke="#132e65" stroke-width="1.5"></path><path d="M1143.51 -70.64L1143.51 -70.64" stroke="#132e65" stroke-width="1.5"></path><path d="M1143.51 -70.64L1117.74 45.51" stroke="#132e65" stroke-width="1.5"></path><path d="M1143.51 -70.64L1287.5 -60.64" stroke="#132e65" stroke-width="1.5"></path><path d="M1117.74 45.51L1117.74 45.51" stroke="#132e65" stroke-width="1.5"></path><path d="M1117.74 45.51L1240.99 64.57" stroke="#132e65" stroke-width="1.5"></path><path d="M1117.74 45.51L1152.81 215.72" stroke="#132e65" stroke-width="1.5"></path><path d="M1117.74 45.51L997.73 -88.98" stroke="#132e65" stroke-width="1.5"></path><path d="M1152.81 215.72L1152.81 215.72" stroke="#132e65" stroke-width="1.5"></path><path d="M1152.81 215.72L1251.71 221.15" stroke="#132e65" stroke-width="1.5"></path><path d="M1152.81 215.72L1141.27 364.92" stroke="#132e65" stroke-width="1.5"></path><path d="M1152.81 215.72L1240.99 64.57" stroke="#132e65" stroke-width="1.5"></path><path d="M1141.27 364.92L1141.27 364.92" stroke="#132e65" stroke-width="1.5"></path><path d="M1141.27 364.92L1238.68 369.47" stroke="#132e65" stroke-width="1.5"></path><path d="M1102.62 548.56L1102.62 548.56" stroke="#132e65" stroke-width="1.5"></path><path d="M1102.62 548.56L1118.1 644.78" stroke="#132e65" stroke-width="1.5"></path><path d="M1118.1 644.78L1118.1 644.78" stroke="#132e65" stroke-width="1.5"></path><path d="M1118.1 644.78L1288.19 705.46" stroke="#132e65" stroke-width="1.5"></path><path d="M1118.1 644.78L987.96 506.71" stroke="#132e65" stroke-width="1.5"></path><path d="M1118.1 644.78L1141.27 364.92" stroke="#132e65" stroke-width="1.5"></path><path d="M1287.5 -60.64L1287.5 -60.64" stroke="#132e65" stroke-width="1.5"></path><path d="M1287.5 -60.64L1240.99 64.57" stroke="#132e65" stroke-width="1.5"></path><path d="M1287.5 -60.64L1434.46 -58.37" stroke="#132e65" stroke-width="1.5"></path><path d="M1240.99 64.57L1240.99 64.57" stroke="#132e65" stroke-width="1.5"></path><path d="M1251.71 221.15L1251.71 221.15" stroke="#132e65" stroke-width="1.5"></path><path d="M1251.71 221.15L1238.68 369.47" stroke="#132e65" stroke-width="1.5"></path><path d="M1251.71 221.15L1240.99 64.57" stroke="#132e65" stroke-width="1.5"></path><path d="M1238.68 369.47L1238.68 369.47" stroke="#132e65" stroke-width="1.5"></path><path d="M1238.68 369.47L1401.57 392.19" stroke="#132e65" stroke-width="1.5"></path><path d="M1238.68 369.47L1152.81 215.72" stroke="#132e65" stroke-width="1.5"></path><path d="M1238.68 369.47L1390.16 527.43" stroke="#132e65" stroke-width="1.5"></path><path d="M1238.68 369.47L1102.62 548.56" stroke="#132e65" stroke-width="1.5"></path><path d="M1288.19 705.46L1288.19 705.46" stroke="#132e65" stroke-width="1.5"></path><path d="M1288.19 705.46L1450.01 648.81" stroke="#132e65" stroke-width="1.5"></path><path d="M1288.19 705.46L1390.16 527.43" stroke="#132e65" stroke-width="1.5"></path><path d="M1434.46 -58.37L1434.46 -58.37" stroke="#132e65" stroke-width="1.5"></path><path d="M1443.78 111.37L1443.78 111.37" stroke="#132e65" stroke-width="1.5"></path><path d="M1443.78 111.37L1438.02 196.59" stroke="#132e65" stroke-width="1.5"></path><path d="M1443.78 111.37L1594.05 46.87" stroke="#132e65" stroke-width="1.5"></path><path d="M1443.78 111.37L1434.46 -58.37" stroke="#132e65" stroke-width="1.5"></path><path d="M1443.78 111.37L1240.99 64.57" stroke="#132e65" stroke-width="1.5"></path><path d="M1443.78 111.37L1251.71 221.15" stroke="#132e65" stroke-width="1.5"></path><path d="M1443.78 111.37L1611.54 261.52" stroke="#132e65" stroke-width="1.5"></path><path d="M1438.02 196.59L1438.02 196.59" stroke="#132e65" stroke-width="1.5"></path><path d="M1438.02 196.59L1611.54 261.52" stroke="#132e65" stroke-width="1.5"></path><path d="M1438.02 196.59L1251.71 221.15" stroke="#132e65" stroke-width="1.5"></path><path d="M1438.02 196.59L1401.57 392.19" stroke="#132e65" stroke-width="1.5"></path><path d="M1401.57 392.19L1401.57 392.19" stroke="#132e65" stroke-width="1.5"></path><path d="M1401.57 392.19L1390.16 527.43" stroke="#132e65" stroke-width="1.5"></path><path d="M1401.57 392.19L1602.39 341.87" stroke="#132e65" stroke-width="1.5"></path><path d="M1390.16 527.43L1390.16 527.43" stroke="#132e65" stroke-width="1.5"></path><path d="M1390.16 527.43L1450.01 648.81" stroke="#132e65" stroke-width="1.5"></path><path d="M1390.16 527.43L1566.43 550.66" stroke="#132e65" stroke-width="1.5"></path><path d="M1390.16 527.43L1610.02 674.78" stroke="#132e65" stroke-width="1.5"></path><path d="M1450.01 648.81L1450.01 648.81" stroke="#132e65" stroke-width="1.5"></path><path d="M1450.01 648.81L1566.43 550.66" stroke="#132e65" stroke-width="1.5"></path><path d="M1450.01 648.81L1610.02 674.78" stroke="#132e65" stroke-width="1.5"></path><path d="M1580.72 -90.84L1580.72 -90.84" stroke="#132e65" stroke-width="1.5"></path><path d="M1580.72 -90.84L1594.05 46.87" stroke="#132e65" stroke-width="1.5"></path><path d="M1580.72 -90.84L1434.46 -58.37" stroke="#132e65" stroke-width="1.5"></path><path d="M1580.72 -90.84L1443.78 111.37" stroke="#132e65" stroke-width="1.5"></path><path d="M1580.72 -90.84L1287.5 -60.64" stroke="#132e65" stroke-width="1.5"></path><path d="M1594.05 46.87L1594.05 46.87" stroke="#132e65" stroke-width="1.5"></path><path d="M1611.54 261.52L1611.54 261.52" stroke="#132e65" stroke-width="1.5"></path><path d="M1611.54 261.52L1602.39 341.87" stroke="#132e65" stroke-width="1.5"></path><path d="M1602.39 341.87L1602.39 341.87" stroke="#132e65" stroke-width="1.5"></path><path d="M1602.39 341.87L1566.43 550.66" stroke="#132e65" stroke-width="1.5"></path><path d="M1602.39 341.87L1438.02 196.59" stroke="#132e65" stroke-width="1.5"></path><path d="M1602.39 341.87L1443.78 111.37" stroke="#132e65" stroke-width="1.5"></path><path d="M1566.43 550.66L1566.43 550.66" stroke="#132e65" stroke-width="1.5"></path><path d="M1566.43 550.66L1610.02 674.78" stroke="#132e65" stroke-width="1.5"></path><path d="M1610.02 674.78L1610.02 674.78" stroke="#132e65" stroke-width="1.5"></path><path d="M1610.02 674.78L1288.19 705.46" stroke="#132e65" stroke-width="1.5"></path><path d="M1610.02 674.78L1602.39 341.87" stroke="#132e65" stroke-width="1.5"></path><circle r="5" cx="-92.72" cy="360.89" fill="#132e65"></circle><circle r="5" cx="-111.32" cy="520.41" fill="#132e65"></circle><circle r="5" cx="-72.44" cy="689.08" fill="#132e65"></circle><circle r="5" cx="42.43" cy="349.27" fill="#132e65"></circle><circle r="5" cx="102.35" cy="547.85" fill="#132e65"></circle><circle r="5" cx="98.23" cy="638.82" fill="#132e65"></circle><circle r="5" cx="234.48" cy="500.19" fill="#132e65"></circle><circle r="5" cx="196.37" cy="700.4" fill="#132e65"></circle><circle r="5" cx="410.99" cy="399.97" fill="#132e65"></circle><circle r="5" cx="392.86" cy="559.53" fill="#132e65"></circle><circle r="5" cx="376.29" cy="656.03" fill="#132e65"></circle><circle r="5" cx="503.73" cy="375.97" fill="#132e65"></circle><circle r="5" cx="517.14" cy="502.02" fill="#132e65"></circle><circle r="5" cx="513.79" cy="708.08" fill="#132e65"></circle><circle r="5" cx="707.49" cy="223.48" fill="#132e65"></circle><circle r="5" cx="697.9" cy="499.56" fill="#132e65"></circle><circle r="5" cx="660.9" cy="688.05" fill="#132e65"></circle><circle r="5" cx="836.93" cy="240.4" fill="#132e65"></circle><circle r="5" cx="846.85" cy="386.19" fill="#132e65"></circle><circle r="5" cx="839.45" cy="490.69" fill="#132e65"></circle><circle r="5" cx="807.06" cy="705.08" fill="#132e65"></circle><circle r="5" cx="997.73" cy="-88.98" fill="#132e65"></circle><circle r="5" cx="1011.58" cy="42.43" fill="#132e65"></circle><circle r="5" cx="1009.48" cy="254.97" fill="#132e65"></circle><circle r="5" cx="978.22" cy="394.38" fill="#132e65"></circle><circle r="5" cx="987.96" cy="506.71" fill="#132e65"></circle><circle r="5" cx="1001.7" cy="650.12" fill="#132e65"></circle><circle r="5" cx="1143.51" cy="-70.64" fill="#132e65"></circle><circle r="5" cx="1117.74" cy="45.51" fill="#132e65"></circle><circle r="5" cx="1152.81" cy="215.72" fill="#132e65"></circle><circle r="5" cx="1141.27" cy="364.92" fill="#132e65"></circle><circle r="5" cx="1102.62" cy="548.56" fill="#132e65"></circle><circle r="5" cx="1118.1" cy="644.78" fill="#132e65"></circle><circle r="5" cx="1287.5" cy="-60.64" fill="#132e65"></circle><circle r="5" cx="1240.99" cy="64.57" fill="#132e65"></circle><circle r="5" cx="1251.71" cy="221.15" fill="#132e65"></circle><circle r="5" cx="1238.68" cy="369.47" fill="#132e65"></circle><circle r="5" cx="1288.19" cy="705.46" fill="#132e65"></circle><circle r="5" cx="1434.46" cy="-58.37" fill="#132e65"></circle><circle r="5" cx="1443.78" cy="111.37" fill="#132e65"></circle><circle r="5" cx="1438.02" cy="196.59" fill="#132e65"></circle><circle r="5" cx="1401.57" cy="392.19" fill="#132e65"></circle><circle r="5" cx="1390.16" cy="527.43" fill="#132e65"></circle><circle r="5" cx="1450.01" cy="648.81" fill="#132e65"></circle><circle r="5" cx="1580.72" cy="-90.84" fill="#132e65"></circle><circle r="5" cx="1594.05" cy="46.87" fill="#132e65"></circle><circle r="5" cx="1611.54" cy="261.52" fill="#132e65"></circle><circle r="5" cx="1602.39" cy="341.87" fill="#132e65"></circle><circle r="5" cx="1566.43" cy="550.66" fill="#132e65"></circle><circle r="5" cx="1610.02" cy="674.78" fill="#132e65"></circle><path d="M82.49 703.61L82.49 703.61" stroke="hsl(228.5, 77.2%, 51.5%)" stroke-width="1.5"></path><path d="M82.49 703.61L192.26 656.42" stroke="hsl(228.5, 77.2%, 51.5%)" stroke-width="1.5"></path><path d="M82.49 703.61L-55.33 696.64" stroke="hsl(228.5, 77.2%, 51.5%)" stroke-width="1.5"></path><path d="M82.49 703.61L59.34 492.89" stroke="hsl(228.5, 77.2%, 51.5%)" stroke-width="1.5"></path><path d="M82.49 703.61L-89.92 536.89" stroke="hsl(228.5, 77.2%, 51.5%)" stroke-width="1.5"></path><path d="M82.49 703.61L364.64 681" stroke="hsl(228.5, 77.2%, 51.5%)" stroke-width="1.5"></path><path d="M364.64 681L364.64 681" stroke="hsl(228.5, 77.2%, 51.5%)" stroke-width="1.5"></path><path d="M364.64 681L511.57 658.14" stroke="hsl(228.5, 77.2%, 51.5%)" stroke-width="1.5"></path><path d="M364.64 681L393.55 533.17" stroke="hsl(228.5, 77.2%, 51.5%)" stroke-width="1.5"></path><path d="M364.64 681L192.26 656.42" stroke="hsl(228.5, 77.2%, 51.5%)" stroke-width="1.5"></path><path d="M364.64 681L509.64 554" stroke="hsl(228.5, 77.2%, 51.5%)" stroke-width="1.5"></path><path d="M666.08 686.35L666.08 686.35" stroke="hsl(228.5, 77.2%, 51.5%)" stroke-width="1.5"></path><path d="M666.08 686.35L816.39 712.33" stroke="hsl(228.5, 77.2%, 51.5%)" stroke-width="1.5"></path><path d="M666.08 686.35L511.57 658.14" stroke="hsl(228.5, 77.2%, 51.5%)" stroke-width="1.5"></path><path d="M666.08 686.35L691.19 498.08" stroke="hsl(228.5, 77.2%, 51.5%)" stroke-width="1.5"></path><path d="M1286.4 -92.82L1286.4 -92.82" stroke="hsl(228.5, 77.2%, 51.5%)" stroke-width="1.5"></path><path d="M1286.4 -92.82L1451.87 -83.43" stroke="hsl(228.5, 77.2%, 51.5%)" stroke-width="1.5"></path><path d="M1286.4 -92.82L1252.02 109.67" stroke="hsl(228.5, 77.2%, 51.5%)" stroke-width="1.5"></path><path d="M1286.4 -92.82L1453.6 92.99" stroke="hsl(228.5, 77.2%, 51.5%)" stroke-width="1.5"></path><path d="M1286.4 -92.82L1551.1 -66.25" stroke="hsl(228.5, 77.2%, 51.5%)" stroke-width="1.5"></path><path d="M1452.96 230.89L1452.96 230.89" stroke="hsl(228.5, 77.2%, 51.5%)" stroke-width="1.5"></path><path d="M1452.96 230.89L1544.19 208.96" stroke="hsl(228.5, 77.2%, 51.5%)" stroke-width="1.5"></path><path d="M1452.96 230.89L1453.6 92.99" stroke="hsl(228.5, 77.2%, 51.5%)" stroke-width="1.5"></path><path d="M1452.96 230.89L1398.5 401.78" stroke="hsl(228.5, 77.2%, 51.5%)" stroke-width="1.5"></path><path d="M1452.96 230.89L1247.45 231.15" stroke="hsl(228.5, 77.2%, 51.5%)" stroke-width="1.5"></path><path d="M1452.96 230.89L1590.19 397.51" stroke="hsl(228.5, 77.2%, 51.5%)" stroke-width="1.5"></path><path d="M1452.96 230.89L1595.04 66.92" stroke="hsl(228.5, 77.2%, 51.5%)" stroke-width="1.5"></path><path d="M1551.1 -66.25L1551.1 -66.25" stroke="hsl(228.5, 77.2%, 51.5%)" stroke-width="1.5"></path><path d="M1551.1 -66.25L1451.87 -83.43" stroke="hsl(228.5, 77.2%, 51.5%)" stroke-width="1.5"></path><path d="M1551.1 -66.25L1595.04 66.92" stroke="hsl(228.5, 77.2%, 51.5%)" stroke-width="1.5"></path><path d="M-89.92 536.89L-89.92 536.89" stroke="hsl(228.5, 77.2%, 51.5%)" stroke-width="1.5"></path><path d="M-89.92 536.89L59.34 492.89" stroke="hsl(228.5, 77.2%, 51.5%)" stroke-width="1.5"></path><path d="M-89.92 536.89L-55.33 696.64" stroke="hsl(228.5, 77.2%, 51.5%)" stroke-width="1.5"></path><path d="M-89.92 536.89L192.26 656.42" stroke="hsl(228.5, 77.2%, 51.5%)" stroke-width="1.5"></path><path d="M-55.33 696.64L-55.33 696.64" stroke="hsl(228.5, 77.2%, 51.5%)" stroke-width="1.5"></path><path d="M59.34 492.89L59.34 492.89" stroke="hsl(228.5, 77.2%, 51.5%)" stroke-width="1.5"></path><path d="M59.34 492.89L192.26 656.42" stroke="hsl(228.5, 77.2%, 51.5%)" stroke-width="1.5"></path><path d="M192.26 656.42L192.26 656.42" stroke="hsl(228.5, 77.2%, 51.5%)" stroke-width="1.5"></path><path d="M393.55 533.17L393.55 533.17" stroke="hsl(228.5, 77.2%, 51.5%)" stroke-width="1.5"></path><path d="M393.55 533.17L509.64 554" stroke="hsl(228.5, 77.2%, 51.5%)" stroke-width="1.5"></path><path d="M393.55 533.17L511.57 658.14" stroke="hsl(228.5, 77.2%, 51.5%)" stroke-width="1.5"></path><path d="M393.55 533.17L192.26 656.42" stroke="hsl(228.5, 77.2%, 51.5%)" stroke-width="1.5"></path><path d="M393.55 533.17L691.19 498.08" stroke="hsl(228.5, 77.2%, 51.5%)" stroke-width="1.5"></path><path d="M393.55 533.17L666.08 686.35" stroke="hsl(228.5, 77.2%, 51.5%)" stroke-width="1.5"></path><path d="M509.64 554L509.64 554" stroke="hsl(228.5, 77.2%, 51.5%)" stroke-width="1.5"></path><path d="M509.64 554L511.57 658.14" stroke="hsl(228.5, 77.2%, 51.5%)" stroke-width="1.5"></path><path d="M509.64 554L691.19 498.08" stroke="hsl(228.5, 77.2%, 51.5%)" stroke-width="1.5"></path><path d="M509.64 554L666.08 686.35" stroke="hsl(228.5, 77.2%, 51.5%)" stroke-width="1.5"></path><path d="M511.57 658.14L511.57 658.14" stroke="hsl(228.5, 77.2%, 51.5%)" stroke-width="1.5"></path><path d="M511.57 658.14L691.19 498.08" stroke="hsl(228.5, 77.2%, 51.5%)" stroke-width="1.5"></path><path d="M511.57 658.14L816.39 712.33" stroke="hsl(228.5, 77.2%, 51.5%)" stroke-width="1.5"></path><path d="M697.3 388.34L697.3 388.34" stroke="hsl(228.5, 77.2%, 51.5%)" stroke-width="1.5"></path><path d="M697.3 388.34L691.19 498.08" stroke="hsl(228.5, 77.2%, 51.5%)" stroke-width="1.5"></path><path d="M697.3 388.34L509.64 554" stroke="hsl(228.5, 77.2%, 51.5%)" stroke-width="1.5"></path><path d="M697.3 388.34L969.05 372.27" stroke="hsl(228.5, 77.2%, 51.5%)" stroke-width="1.5"></path><path d="M697.3 388.34L952.57 518.32" stroke="hsl(228.5, 77.2%, 51.5%)" stroke-width="1.5"></path><path d="M697.3 388.34L666.08 686.35" stroke="hsl(228.5, 77.2%, 51.5%)" stroke-width="1.5"></path><path d="M697.3 388.34L511.57 658.14" stroke="hsl(228.5, 77.2%, 51.5%)" stroke-width="1.5"></path><path d="M691.19 498.08L691.19 498.08" stroke="hsl(228.5, 77.2%, 51.5%)" stroke-width="1.5"></path><path d="M816.39 712.33L816.39 712.33" stroke="hsl(228.5, 77.2%, 51.5%)" stroke-width="1.5"></path><path d="M816.39 712.33L940.38 642.26" stroke="hsl(228.5, 77.2%, 51.5%)" stroke-width="1.5"></path><path d="M816.39 712.33L952.57 518.32" stroke="hsl(228.5, 77.2%, 51.5%)" stroke-width="1.5"></path><path d="M816.39 712.33L691.19 498.08" stroke="hsl(228.5, 77.2%, 51.5%)" stroke-width="1.5"></path><path d="M816.39 712.33L1097.27 702.2" stroke="hsl(228.5, 77.2%, 51.5%)" stroke-width="1.5"></path><path d="M969.05 372.27L969.05 372.27" stroke="hsl(228.5, 77.2%, 51.5%)" stroke-width="1.5"></path><path d="M969.05 372.27L952.57 518.32" stroke="hsl(228.5, 77.2%, 51.5%)" stroke-width="1.5"></path><path d="M969.05 372.27L1136.58 402.83" stroke="hsl(228.5, 77.2%, 51.5%)" stroke-width="1.5"></path><path d="M969.05 372.27L1158.61 210.77" stroke="hsl(228.5, 77.2%, 51.5%)" stroke-width="1.5"></path><path d="M969.05 372.27L1148.78 551.68" stroke="hsl(228.5, 77.2%, 51.5%)" stroke-width="1.5"></path><path d="M969.05 372.27L1239.5 379.52" stroke="hsl(228.5, 77.2%, 51.5%)" stroke-width="1.5"></path><path d="M952.57 518.32L952.57 518.32" stroke="hsl(228.5, 77.2%, 51.5%)" stroke-width="1.5"></path><path d="M952.57 518.32L940.38 642.26" stroke="hsl(228.5, 77.2%, 51.5%)" stroke-width="1.5"></path><path d="M952.57 518.32L1148.78 551.68" stroke="hsl(228.5, 77.2%, 51.5%)" stroke-width="1.5"></path><path d="M952.57 518.32L1136.58 402.83" stroke="hsl(228.5, 77.2%, 51.5%)" stroke-width="1.5"></path><path d="M952.57 518.32L1097.27 702.2" stroke="hsl(228.5, 77.2%, 51.5%)" stroke-width="1.5"></path><path d="M940.38 642.26L940.38 642.26" stroke="hsl(228.5, 77.2%, 51.5%)" stroke-width="1.5"></path><path d="M940.38 642.26L1097.27 702.2" stroke="hsl(228.5, 77.2%, 51.5%)" stroke-width="1.5"></path><path d="M940.38 642.26L1148.78 551.68" stroke="hsl(228.5, 77.2%, 51.5%)" stroke-width="1.5"></path><path d="M940.38 642.26L969.05 372.27" stroke="hsl(228.5, 77.2%, 51.5%)" stroke-width="1.5"></path><path d="M940.38 642.26L666.08 686.35" stroke="hsl(228.5, 77.2%, 51.5%)" stroke-width="1.5"></path><path d="M1158.61 210.77L1158.61 210.77" stroke="hsl(228.5, 77.2%, 51.5%)" stroke-width="1.5"></path><path d="M1158.61 210.77L1247.45 231.15" stroke="hsl(228.5, 77.2%, 51.5%)" stroke-width="1.5"></path><path d="M1158.61 210.77L1252.02 109.67" stroke="hsl(228.5, 77.2%, 51.5%)" stroke-width="1.5"></path><path d="M1136.58 402.83L1136.58 402.83" stroke="hsl(228.5, 77.2%, 51.5%)" stroke-width="1.5"></path><path d="M1136.58 402.83L1239.5 379.52" stroke="hsl(228.5, 77.2%, 51.5%)" stroke-width="1.5"></path><path d="M1136.58 402.83L1148.78 551.68" stroke="hsl(228.5, 77.2%, 51.5%)" stroke-width="1.5"></path><path d="M1136.58 402.83L1270 500.54" stroke="hsl(228.5, 77.2%, 51.5%)" stroke-width="1.5"></path><path d="M1148.78 551.68L1148.78 551.68" stroke="hsl(228.5, 77.2%, 51.5%)" stroke-width="1.5"></path><path d="M1148.78 551.68L1270 500.54" stroke="hsl(228.5, 77.2%, 51.5%)" stroke-width="1.5"></path><path d="M1148.78 551.68L1097.27 702.2" stroke="hsl(228.5, 77.2%, 51.5%)" stroke-width="1.5"></path><path d="M1148.78 551.68L1239.5 379.52" stroke="hsl(228.5, 77.2%, 51.5%)" stroke-width="1.5"></path><path d="M1148.78 551.68L1308.62 707.03" stroke="hsl(228.5, 77.2%, 51.5%)" stroke-width="1.5"></path><path d="M1097.27 702.2L1097.27 702.2" stroke="hsl(228.5, 77.2%, 51.5%)" stroke-width="1.5"></path><path d="M1252.02 109.67L1252.02 109.67" stroke="hsl(228.5, 77.2%, 51.5%)" stroke-width="1.5"></path><path d="M1252.02 109.67L1247.45 231.15" stroke="hsl(228.5, 77.2%, 51.5%)" stroke-width="1.5"></path><path d="M1252.02 109.67L1453.6 92.99" stroke="hsl(228.5, 77.2%, 51.5%)" stroke-width="1.5"></path><path d="M1252.02 109.67L1452.96 230.89" stroke="hsl(228.5, 77.2%, 51.5%)" stroke-width="1.5"></path><path d="M1247.45 231.15L1247.45 231.15" stroke="hsl(228.5, 77.2%, 51.5%)" stroke-width="1.5"></path><path d="M1247.45 231.15L1239.5 379.52" stroke="hsl(228.5, 77.2%, 51.5%)" stroke-width="1.5"></path><path d="M1247.45 231.15L1136.58 402.83" stroke="hsl(228.5, 77.2%, 51.5%)" stroke-width="1.5"></path><path d="M1247.45 231.15L1398.5 401.78" stroke="hsl(228.5, 77.2%, 51.5%)" stroke-width="1.5"></path><path d="M1239.5 379.52L1239.5 379.52" stroke="hsl(228.5, 77.2%, 51.5%)" stroke-width="1.5"></path><path d="M1239.5 379.52L1270 500.54" stroke="hsl(228.5, 77.2%, 51.5%)" stroke-width="1.5"></path><path d="M1270 500.54L1270 500.54" stroke="hsl(228.5, 77.2%, 51.5%)" stroke-width="1.5"></path><path d="M1270 500.54L1398.5 401.78" stroke="hsl(228.5, 77.2%, 51.5%)" stroke-width="1.5"></path><path d="M1308.62 707.03L1308.62 707.03" stroke="hsl(228.5, 77.2%, 51.5%)" stroke-width="1.5"></path><path d="M1308.62 707.03L1406.74 692.05" stroke="hsl(228.5, 77.2%, 51.5%)" stroke-width="1.5"></path><path d="M1308.62 707.03L1270 500.54" stroke="hsl(228.5, 77.2%, 51.5%)" stroke-width="1.5"></path><path d="M1308.62 707.03L1097.27 702.2" stroke="hsl(228.5, 77.2%, 51.5%)" stroke-width="1.5"></path><path d="M1451.87 -83.43L1451.87 -83.43" stroke="hsl(228.5, 77.2%, 51.5%)" stroke-width="1.5"></path><path d="M1451.87 -83.43L1453.6 92.99" stroke="hsl(228.5, 77.2%, 51.5%)" stroke-width="1.5"></path><path d="M1451.87 -83.43L1595.04 66.92" stroke="hsl(228.5, 77.2%, 51.5%)" stroke-width="1.5"></path><path d="M1451.87 -83.43L1252.02 109.67" stroke="hsl(228.5, 77.2%, 51.5%)" stroke-width="1.5"></path><path d="M1453.6 92.99L1453.6 92.99" stroke="hsl(228.5, 77.2%, 51.5%)" stroke-width="1.5"></path><path d="M1453.6 92.99L1595.04 66.92" stroke="hsl(228.5, 77.2%, 51.5%)" stroke-width="1.5"></path><path d="M1398.5 401.78L1398.5 401.78" stroke="hsl(228.5, 77.2%, 51.5%)" stroke-width="1.5"></path><path d="M1398.5 401.78L1239.5 379.52" stroke="hsl(228.5, 77.2%, 51.5%)" stroke-width="1.5"></path><path d="M1406.74 692.05L1406.74 692.05" stroke="hsl(228.5, 77.2%, 51.5%)" stroke-width="1.5"></path><path d="M1406.74 692.05L1566.87 668.86" stroke="hsl(228.5, 77.2%, 51.5%)" stroke-width="1.5"></path><path d="M1406.74 692.05L1573 545.44" stroke="hsl(228.5, 77.2%, 51.5%)" stroke-width="1.5"></path><path d="M1406.74 692.05L1270 500.54" stroke="hsl(228.5, 77.2%, 51.5%)" stroke-width="1.5"></path><path d="M1595.04 66.92L1595.04 66.92" stroke="hsl(228.5, 77.2%, 51.5%)" stroke-width="1.5"></path><path d="M1595.04 66.92L1544.19 208.96" stroke="hsl(228.5, 77.2%, 51.5%)" stroke-width="1.5"></path><path d="M1544.19 208.96L1544.19 208.96" stroke="hsl(228.5, 77.2%, 51.5%)" stroke-width="1.5"></path><path d="M1544.19 208.96L1453.6 92.99" stroke="hsl(228.5, 77.2%, 51.5%)" stroke-width="1.5"></path><path d="M1544.19 208.96L1590.19 397.51" stroke="hsl(228.5, 77.2%, 51.5%)" stroke-width="1.5"></path><path d="M1590.19 397.51L1590.19 397.51" stroke="hsl(228.5, 77.2%, 51.5%)" stroke-width="1.5"></path><path d="M1590.19 397.51L1573 545.44" stroke="hsl(228.5, 77.2%, 51.5%)" stroke-width="1.5"></path><path d="M1590.19 397.51L1398.5 401.78" stroke="hsl(228.5, 77.2%, 51.5%)" stroke-width="1.5"></path><path d="M1590.19 397.51L1566.87 668.86" stroke="hsl(228.5, 77.2%, 51.5%)" stroke-width="1.5"></path><path d="M1573 545.44L1573 545.44" stroke="hsl(228.5, 77.2%, 51.5%)" stroke-width="1.5"></path><path d="M1573 545.44L1566.87 668.86" stroke="hsl(228.5, 77.2%, 51.5%)" stroke-width="1.5"></path><path d="M1566.87 668.86L1566.87 668.86" stroke="hsl(228.5, 77.2%, 51.5%)" stroke-width="1.5"></path><path d="M1566.87 668.86L1308.62 707.03" stroke="hsl(228.5, 77.2%, 51.5%)" stroke-width="1.5"></path><path d="M1566.87 668.86L1398.5 401.78" stroke="hsl(228.5, 77.2%, 51.5%)" stroke-width="1.5"></path><path d="M1566.87 668.86L1270 500.54" stroke="hsl(228.5, 77.2%, 51.5%)" stroke-width="1.5"></path><circle r="25" cx="82.49" cy="703.61" fill="url(&quot;#SvgjsRadialGradient1001&quot;)"></circle><circle r="25" cx="364.64" cy="681" fill="url(&quot;#SvgjsRadialGradient1001&quot;)"></circle><circle r="25" cx="666.08" cy="686.35" fill="url(&quot;#SvgjsRadialGradient1001&quot;)"></circle><circle r="25" cx="1286.4" cy="-92.82" fill="url(&quot;#SvgjsRadialGradient1001&quot;)"></circle><circle r="25" cx="1452.96" cy="230.89" fill="url(&quot;#SvgjsRadialGradient1001&quot;)"></circle><circle r="25" cx="1551.1" cy="-66.25" fill="url(&quot;#SvgjsRadialGradient1001&quot;)"></circle><circle r="5" cx="-89.92" cy="536.89" fill="#8b9ad9"></circle><circle r="5" cx="-55.33" cy="696.64" fill="#8b9ad9"></circle><circle r="5" cx="59.34" cy="492.89" fill="#8b9ad9"></circle><circle r="5" cx="192.26" cy="656.42" fill="#8b9ad9"></circle><circle r="5" cx="393.55" cy="533.17" fill="#8b9ad9"></circle><circle r="5" cx="509.64" cy="554" fill="#8b9ad9"></circle><circle r="5" cx="511.57" cy="658.14" fill="#8b9ad9"></circle><circle r="5" cx="697.3" cy="388.34" fill="#8b9ad9"></circle><circle r="5" cx="691.19" cy="498.08" fill="#8b9ad9"></circle><circle r="5" cx="816.39" cy="712.33" fill="#8b9ad9"></circle><circle r="5" cx="969.05" cy="372.27" fill="#8b9ad9"></circle><circle r="5" cx="952.57" cy="518.32" fill="#8b9ad9"></circle><circle r="5" cx="940.38" cy="642.26" fill="#8b9ad9"></circle><circle r="5" cx="1158.61" cy="210.77" fill="#8b9ad9"></circle><circle r="5" cx="1136.58" cy="402.83" fill="#8b9ad9"></circle><circle r="5" cx="1148.78" cy="551.68" fill="#8b9ad9"></circle><circle r="5" cx="1097.27" cy="702.2" fill="#8b9ad9"></circle><circle r="5" cx="1252.02" cy="109.67" fill="#8b9ad9"></circle><circle r="5" cx="1247.45" cy="231.15" fill="#8b9ad9"></circle><circle r="5" cx="1239.5" cy="379.52" fill="#8b9ad9"></circle><circle r="5" cx="1270" cy="500.54" fill="#8b9ad9"></circle><circle r="5" cx="1308.62" cy="707.03" fill="#8b9ad9"></circle><circle r="5" cx="1451.87" cy="-83.43" fill="#8b9ad9"></circle><circle r="5" cx="1453.6" cy="92.99" fill="#8b9ad9"></circle><circle r="5" cx="1398.5" cy="401.78" fill="#8b9ad9"></circle><circle r="5" cx="1406.74" cy="692.05" fill="#8b9ad9"></circle><circle r="5" cx="1595.04" cy="66.92" fill="#8b9ad9"></circle><circle r="5" cx="1544.19" cy="208.96" fill="#8b9ad9"></circle><circle r="5" cx="1590.19" cy="397.51" fill="#8b9ad9"></circle><circle r="5" cx="1573" cy="545.44" fill="#8b9ad9"></circle><circle r="5" cx="1566.87" cy="668.86" fill="#8b9ad9"></circle></g><defs><mask id="SvgjsMask1000"><rect width="1440" height="560" fill="#ffffff"></rect></mask><radialGradient id="SvgjsRadialGradient1001"><stop stop-color="#ffffff" offset="0.1"></stop><stop stop-color="#1735b3" offset="0.2"></stop><stop stop-color="rgba(23, 53, 179, 0)" offset="1"></stop></radialGradient></defs></svg>